# Blender v2.79 (sub 0) OBJ File: 'container2.blend'
# www.blender.org
mtllib container2.mtl
o Cube
v 2.452509 -1.000000 -1.000000
v 2.452509 -1.000000 1.000000
v -2.452510 -1.000000 1.000000
v -2.452508 -1.000000 -1.000000
v 2.452511 1.000000 -0.999999
v 2.452508 1.000000 1.000000
v -2.452510 1.000000 1.000000
v -2.452509 1.000000 -1.000000
vt 0.500000 0.500000
vt 0.500000 0.749957
vt 0.250043 0.749957
vt 0.250043 0.500000
vt 1.028085 0.257168
vt -0.054814 0.257168
vt -0.054814 0.017765
vt 1.028084 0.017765
vt 0.753257 0.802729
vt 0.753257 0.947141
vt -0.003214 0.947141
vt -0.003214 0.802729
vt 0.855481 -0.014364
vt 0.855481 0.764406
vt -0.105437 0.764407
vt -0.105438 -0.014363
vt 0.946761 0.068820
vt 0.946761 0.962386
vt 0.053195 0.962386
vt 0.053195 0.068821
vt 1.008072 0.059294
vt 1.003259 0.960646
vt 0.007683 0.956288
vt 0.012496 0.054936
vn 0.0000 -1.0000 0.0000
vn 0.0000 1.0000 0.0000
vn -0.0000 -0.0000 1.0000
vn 0.0000 0.0000 -1.0000
vn 1.0000 0.0000 0.0000
vn -1.0000 -0.0000 -0.0000
usemtl ContanerMat1
s off
f 1/1/1 2/2/1 3/3/1 4/4/1
f 5/5/2 8/6/2 7/7/2 6/8/2
f 2/9/3 6/10/3 7/11/3 3/12/3
f 5/13/4 1/14/4 4/15/4 8/16/4
usemtl ContanerMat2
f 1/17/5 5/18/5 6/19/5 2/20/5
f 3/21/6 7/22/6 8/23/6 4/24/6
